<svg xmlns="http://www.w3.org/2000/svg" width="62" height="38" viewBox="0 0 62 38" fill="none">
  <path d="M3 16.5C1.61929 16.5 0.5 17.6193 0.5 19C0.5 20.3807 1.61929 21.5 3 21.5L3 16.5ZM60.7678 20.7678C61.7441 19.7915 61.7441 18.2085 60.7678 17.2322L44.8579 1.32233C43.8816 0.346016 42.2986 0.346016 41.3223 1.32233C40.346 2.29864 40.346 3.88155 41.3223 4.85786L55.4645 19L41.3223 33.1421C40.346 34.1184 40.346 35.7014 41.3223 36.6777C42.2986 37.654 43.8816 37.654 44.8579 36.6777L60.7678 20.7678ZM3 21.5L59 21.5L59 16.5L3 16.5L3 21.5Z" fill="white"/>
</svg>