<svg width="57" height="51" viewBox="0 0 57 51" fill="none" xmlns="http://www.w3.org/2000/svg">
<g id="104px/Illustrative/Action/ic_camera_104">
<path id="Icons/104px/Illustrative/Action/ic_camera" fill-rule="evenodd" clip-rule="evenodd" d="M51.2023 11.5417H42.5574C41.8952 11.5417 41.2614 11.2733 40.7989 10.7969L37.152 7.03957C36.5064 6.3746 35.6213 6 34.6964 6H23.9357C23.0107 6 22.1256 6.3746 21.4801 7.03952L17.8331 10.797C17.3707 11.2733 16.7369 11.5417 16.0747 11.5417H7.4298C5.53536 11.5417 4 13.0839 4 14.9867V39.5555C4 41.4579 5.53545 43 7.4298 43H51.2023C53.0962 43 54.6316 41.4579 54.6316 39.5555V14.9867C54.6316 13.084 53.0963 11.5417 51.2023 11.5417ZM51.2023 12.5198C52.5585 12.5198 53.6579 13.6242 53.6579 14.9868V39.5556C53.6579 40.9178 52.5585 42.0221 51.2023 42.0221H7.4298C6.07317 42.0221 4.97368 40.9179 4.97368 39.5556V14.9868C4.97368 13.6241 6.07311 12.5198 7.4298 12.5198H16.0747C16.9994 12.5198 17.8846 12.1449 18.5303 11.4798L22.1772 7.72235C22.6394 7.24628 23.2732 6.97808 23.9357 6.97808H34.6964C35.3589 6.97808 35.9926 7.24628 36.4549 7.7224L40.1018 11.4798C40.7475 12.1449 41.6327 12.5198 42.5574 12.5198H51.2023ZM29.316 14.3129C34.9177 14.3129 39.4584 18.8735 39.4584 24.5C39.4584 30.1265 34.9177 34.6872 29.316 34.6872C23.7142 34.6872 19.1736 30.1265 19.1736 24.5C19.1736 18.8735 23.7142 14.3129 29.316 14.3129ZM29.316 15.2908C24.252 15.2908 20.1473 19.4136 20.1473 24.5C20.1473 29.5863 24.252 33.7092 29.316 33.7092C34.38 33.7092 38.4847 29.5863 38.4847 24.5C38.4847 19.4136 34.38 15.2908 29.316 15.2908Z" fill="#323C32"/>
</g>
</svg>
