<svg width="25" height="24" viewBox="0 0 25 24" fill="none" xmlns="http://www.w3.org/2000/svg">
<g id="24px/Interactive/Action/ic_search_24">
<path id="Icons/24px/Interactive/Image/ic_book" fill-rule="evenodd" clip-rule="evenodd" d="M15.1007 1.5H22.1717C23.1987 1.5 24.0347 2.33864 24.0347 3.36887V17.5545C24.0347 18.5847 23.1987 19.4233 22.1717 19.4233H15.1007C13.6857 19.4233 12.5347 20.579 12.5347 21.9984C12.5347 22.2753 12.3107 22.5 12.0347 22.5C11.7587 22.5 11.5347 22.2753 11.5347 21.9984C11.5347 20.579 10.3837 19.4233 8.96867 19.4233H1.89767C0.870668 19.4233 0.034668 18.5847 0.034668 17.5545V3.36887C0.034668 2.33864 0.870668 1.5 1.89767 1.5H8.96867C10.2797 1.5 11.4157 2.22127 12.0347 3.2806C12.6537 2.22127 13.7897 1.5 15.1007 1.5ZM8.96867 18.4202H1.89767C1.42267 18.4202 1.03467 18.032 1.03467 17.5545V3.36887C1.03467 2.89238 1.42267 2.50315 1.89767 2.50315H8.96867C10.3837 2.50315 11.5347 3.65778 11.5347 5.07724V19.5166C10.8857 18.8405 9.97467 18.4202 8.96867 18.4202ZM23.0347 17.5545C23.0347 18.032 22.6467 18.4202 22.1717 18.4202H15.1007C14.0927 18.4202 13.1837 18.8465 12.5347 19.5246V5.07724C12.5347 3.65778 13.6857 2.50315 15.1007 2.50315H22.1717C22.6467 2.50315 23.0347 2.89238 23.0347 3.36887V17.5545Z" fill="#64C832"/>
</g>
</svg>
