<svg width="23" height="16" viewBox="0 0 23 16" fill="none" xmlns="http://www.w3.org/2000/svg">
<g id="16px/Interactive/Documents/ic_document_16">
<path id="Icons/16px/Interactive/Documents/ic_document" fill-rule="evenodd" clip-rule="evenodd" d="M9.50262 0.200156L5.47263 4.05416C5.46117 4.06534 5.45012 4.07683 5.43948 4.0886C5.32404 4.18019 5.25 4.3217 5.25 4.48051C5.25 4.49554 5.25066 4.51041 5.25196 4.5251C5.25079 4.54181 5.2502 4.55862 5.2502 4.57551V14.6115C5.2502 15.3779 5.8723 15.9995 6.6392 15.9995H15.3622C16.1291 15.9995 16.7512 15.3779 16.7512 14.6115V1.38851C16.7512 0.622111 16.1291 -0.000488281 15.3622 -0.000488281H10.0012C9.98284 -0.000488281 9.96457 0.000218514 9.94644 0.0016128C9.93543 0.000885695 9.92433 0.000514937 9.91313 0.000511957C9.76576 0.000472731 9.63326 0.0641963 9.54173 0.16561C9.53021 0.175085 9.51895 0.184924 9.50797 0.195115L9.50262 0.200156ZM9.41269 1.66983L6.99647 3.98051H9.41207L9.41269 1.66983ZM6.2502 4.98051V14.6115C6.2502 14.8254 6.42441 14.9995 6.6392 14.9995H15.3622C15.577 14.9995 15.7512 14.8254 15.7512 14.6115V1.38851C15.7512 1.17422 15.5766 0.999512 15.3622 0.999512H10.4129L10.412 4.25751C10.412 4.65665 10.0881 4.98051 9.689 4.98051H6.2502Z" fill="#3FA110"/>
</g>
</svg>
