<svg width="49" height="48" viewBox="0 0 49 48" fill="none" xmlns="http://www.w3.org/2000/svg">
<g id="24px/Interactive/Status/ic_info_24">
<path id="Icons/24px/Interactive/Status/ic_info" fill-rule="evenodd" clip-rule="evenodd" d="M48.8788 24C48.8788 10.7445 38.1343 0 24.8788 0C11.6232 0 0.878784 10.7445 0.878784 24C0.878784 28.0757 1.89771 32.0097 3.81254 35.5082C5.28413 38.1947 7.26008 40.5792 9.62616 42.5319C13.8936 46.0452 19.2386 48 24.8788 48C38.1343 48 48.8788 37.2555 48.8788 24ZM3.27881 24C3.27881 12.07 12.9488 2.40004 24.8788 2.40004C36.8089 2.40004 46.4788 12.07 46.4788 24C46.4788 35.9301 36.8089 45.6 24.8788 45.6C19.8005 45.6 14.9934 43.8419 11.1527 40.68C9.0221 38.9216 7.2423 36.7739 5.91767 34.3556C4.19519 31.2085 3.27881 27.6705 3.27881 24ZM23.6788 20.3379V34.8621C23.6788 35.4905 24.216 36 24.8788 36C25.5415 36 26.0788 35.4905 26.0788 34.8621V20.3379C26.0788 19.7094 25.5415 19.2 24.8788 19.2C24.216 19.2 23.6788 19.7094 23.6788 20.3379ZM24.8789 12.5296C25.7597 12.5296 26.4749 13.2448 26.4749 14.1256C26.4749 15.0064 25.7597 15.7216 24.8789 15.7216C23.9981 15.7216 23.2829 15.0064 23.2829 14.1256C23.2829 13.2448 23.9981 12.5296 24.8789 12.5296Z" fill="#3FA110"/>
</g>
</svg>
