<svg width="24" height="24" viewBox="0 0 24 24" fill="none" xmlns="http://www.w3.org/2000/svg">
<path fill-rule="evenodd" clip-rule="evenodd" d="M0.5 4H23.5C23.7761 4 24 3.77614 24 3.5C24 3.22386 23.7761 3 23.5 3H0.5C0.223858 3 0 3.22386 0 3.5C0 3.77614 0.223858 4 0.5 4ZM0.5 13H23.5C23.7761 13 24 12.7761 24 12.5C24 12.2239 23.7761 12 23.5 12H0.5C0.223858 12 0 12.2239 0 12.5C0 12.7761 0.223858 13 0.5 13ZM23.5 21H0.5C0.223858 21 0 20.7761 0 20.5C0 20.2239 0.223858 20 0.5 20H23.5C23.7761 20 24 20.2239 24 20.5C24 20.7761 23.7761 21 23.5 21Z" fill="#3FA110"/>
</svg>
