<svg width="23" height="16" viewBox="0 0 23 16" fill="none" xmlns="http://www.w3.org/2000/svg">
<g id="16px/Interactive/Devices/ic_notebook_16">
<path id="Icons/16px/Interactive/Devices/ic_notebook" fill-rule="evenodd" clip-rule="evenodd" d="M18.1285 10.8052L19.0015 13.2676C19.0815 13.4924 19.0475 13.7433 18.9095 13.9379C18.7725 14.1336 18.5485 14.25 18.3105 14.25H3.77853C3.53953 14.25 3.31553 14.1336 3.17853 13.9379C3.04153 13.7433 3.00753 13.4924 3.08653 13.2676L3.95953 10.8052V3.18995C3.95953 2.39622 4.60353 1.75 5.39453 1.75H16.6935C17.4855 1.75 18.1285 2.39622 18.1285 3.18995V10.8052ZM4.95953 3.18995C4.95953 2.94912 5.15553 2.75345 5.39453 2.75345H16.6935C16.9335 2.75345 17.1285 2.94912 17.1285 3.18995V10.3897H4.95953V3.18995ZM4.15553 13.2465L4.81253 11.3932H17.2755L17.9325 13.2465H4.15553Z" fill="#3FA110"/>
</g>
</svg>
