<svg width="104" height="104" viewBox="0 0 104 104" fill="none" xmlns="http://www.w3.org/2000/svg">
<g id="Icon Empty">
<path id="Icons/104px/Illustrative/Action/ic_upload" fill-rule="evenodd" clip-rule="evenodd" d="M41.1389 22.6812C32.2038 26.7398 25.8178 34.9255 23.9851 44.5821C13.7942 42.3445 3.52766 48.5066 0.717988 58.7621C-2.18995 69.3772 3.99128 80.3567 14.5248 83.2873C16.0837 83.7199 17.6866 83.9593 19.2981 83.9996L80.7999 83.9999C93.6134 83.9999 104 73.5332 104 60.6205C104 47.7076 93.6132 37.2402 80.7999 37.2402H80.5845C73.577 22.4209 56.061 15.902 41.1389 22.6812ZM51.0001 81.9843H19.3229C17.8992 81.9484 16.458 81.7332 15.0564 81.3443C5.58822 78.7101 0.0318863 68.8405 2.64586 59.2984C5.25986 49.7573 15.0542 44.1574 24.5219 46.7908C25.0987 46.9512 25.6853 46.5687 25.7763 45.9727C27.2198 36.5215 33.3104 28.448 41.9608 24.5187C56.0737 18.1071 72.6724 24.4392 79.0343 38.6621C79.1959 39.0234 79.5526 39.2557 79.9459 39.2557H80.7999C92.5086 39.2557 102 48.8208 102 60.6205C102 72.4201 92.5088 81.9843 80.7999 81.9843H53.0001V48.0808L68.9229 62.1495C69.3382 62.5165 69.97 62.4747 70.334 62.0562C70.6981 61.6376 70.6566 61.0009 70.2414 60.634L52.6594 45.0992C52.2716 44.7566 51.689 44.7673 51.3139 45.1239L33.7319 61.8398C33.3302 62.2218 33.3117 62.8596 33.6907 63.2645C34.0697 63.6693 34.7026 63.6879 35.1043 63.3059L51.0001 48.1932V81.9843Z" fill="#3FA110"/>
</g>
</svg>
