<svg width="120" height="29" viewBox="0 0 120 29" fill="none" xmlns="http://www.w3.org/2000/svg">
<path fill-rule="evenodd" clip-rule="evenodd" d="M114.792 8.48425L115.329 4.75879H119.769L119.232 8.48425H114.792ZM117.001 23.9695H112.561L114.516 10.4035H118.956L117.001 23.9695Z" fill="#64C832"/>
<path fill-rule="evenodd" clip-rule="evenodd" d="M106.129 18.6564C104.741 19.8493 103.665 20.5435 102.311 20.5696C101.919 20.5862 101.661 20.5155 101.509 20.3462C101.141 19.9376 101.214 18.8141 101.465 17.0117C101.955 13.4952 102.484 13.1891 104.962 13.1891H106.914L106.129 18.6564ZM108.172 4.78613L107.363 10.3332C106.041 10.1431 104.554 10.0294 103.255 10.0294C99.9691 10.0294 97.7682 11.1799 96.9496 16.9084C96.5344 19.9643 96.8415 22.0137 97.8885 23.1739C98.5668 23.9259 99.5298 24.2912 100.833 24.2912C102.688 24.2912 104.519 23.4624 106.282 21.8254V23.9699H109.84L112.636 4.78613H108.172Z" fill="#64C832"/>
<path fill-rule="evenodd" clip-rule="evenodd" d="M86.4466 16.1856C86.8562 13.9894 87.3725 13.2965 89.4629 13.2965C89.6106 13.2939 89.7499 13.2926 89.8806 13.2926C90.5884 13.2926 91.0676 13.3356 91.2705 13.5505C91.408 13.6962 91.4523 13.9505 91.4151 14.3687C91.2636 15.567 90.6596 15.814 89.3591 15.9153L86.4466 16.1856ZM95.7385 14.7925C95.9485 13.3609 95.7209 12.2957 95.0431 11.536C94.1375 10.522 92.4016 10.0293 89.7362 10.0293C84.3428 10.0293 82.3068 11.7587 81.6667 16.8842C81.3481 19.5128 81.7218 21.3688 82.81 22.5578C83.8778 23.724 85.6475 24.2911 88.2214 24.2911C90.0369 24.2911 92.7847 23.9672 94.5275 23.2572L94.6892 23.1906L94.6384 23.0278C94.6346 23.0151 94.2463 21.7626 94.1139 20.6298L94.0892 20.4147L93.8729 20.4683C93.3364 20.6011 90.0519 20.757 88.6897 20.757C87.1091 20.757 86.2696 20.4641 86.1662 18.8994L89.9973 18.6193C93.22 18.3974 95.3045 17.6801 95.7385 14.7925Z" fill="#64C832"/>
<path fill-rule="evenodd" clip-rule="evenodd" d="M82.16 10.4038H81.2992C79.6649 10.4038 78.0645 11.1907 76.0021 13.0211V10.4038H72.4718L70.5172 23.9699H74.9865L76.0692 16.167C76.6324 15.4705 78.1975 14.6495 79.3616 14.6495H80.3155L80.3488 14.5011C80.3529 14.4837 80.7559 12.7399 81.9892 10.6881L82.16 10.4038Z" fill="#64C832"/>
<path fill-rule="evenodd" clip-rule="evenodd" d="M64.7664 10.0293C62.2414 10.0293 60.5133 10.5389 59.3281 11.6328C58.1573 12.7139 57.4655 14.3651 57.0847 16.9867C56.7033 19.592 57.0285 21.4304 58.0795 22.6065C59.0924 23.7401 60.811 24.2911 63.3343 24.2911C64.5742 24.2911 66.3961 24.181 68.0362 23.6577L68.1516 23.621L68.6143 20.416L68.3187 20.4644C67.1779 20.6226 65.7417 20.7026 64.05 20.7026C62.8795 20.7026 62.2968 20.5633 61.9721 20.2049C61.5692 19.7611 61.4929 18.8973 61.7103 17.2226C62.0995 14.1183 63.0918 13.6173 65.3169 13.6173C66.2189 13.6173 69.5855 13.6737 69.5855 13.6737L70.0233 10.6336C70.0233 10.6336 68.1371 10.0293 64.7664 10.0293Z" fill="#64C832"/>
<path fill-rule="evenodd" clip-rule="evenodd" d="M56.5978 4.75928L56.0611 8.48474H51.6209L52.1576 4.75928H56.5978ZM53.83 23.97H49.3898L51.3443 10.4039H55.7849L53.83 23.97Z" fill="#64C832"/>
<path fill-rule="evenodd" clip-rule="evenodd" d="M35.2485 9.78948C34.8748 12.5893 35.8818 14.2443 38.6174 15.3243L42.2296 16.721C43.3767 17.1286 43.6297 17.3362 43.482 18.4392C43.2588 19.8613 42.6895 20.2416 40.1642 20.2416H34.0274L33.4816 23.9669H40.3432C45.6885 23.9669 47.4834 22.7429 48.0257 18.7277C48.3603 16.1936 47.9085 14.3748 44.6256 13.1379L41.2109 11.8749C39.8881 11.3946 39.6438 11.2025 39.8194 10.0774C40.0216 8.82342 40.4975 8.55232 41.488 8.48474H48.8111L49.3569 4.75928H42.8207C38.3721 4.75928 35.848 5.56092 35.2485 9.78948Z" fill="#64C832"/>
<path fill-rule="evenodd" clip-rule="evenodd" d="M17.8317 9.20504C17.8251 10.3819 17.5111 10.9743 17.1213 11.0186C16.8661 11.0476 16.5722 10.8425 16.3052 10.4166C15.4312 9.02146 14.4737 7.6916 13.4578 6.38609C13.4583 6.3835 13.4593 6.38039 13.4601 6.3778C13.8544 4.31776 14.4857 2.2176 15.5652 0.391113C16.9162 3.03529 17.8482 6.26335 17.8317 9.20504ZM12.7624 9.13617C13.7171 9.96681 13.9785 10.6304 13.7652 10.9922C13.6256 11.2291 13.277 11.3412 12.7665 11.2827C11.0552 11.0869 9.34855 11.0106 7.62152 10.9981C7.61974 10.9961 7.6177 10.9932 7.61567 10.9909C5.98499 9.10587 4.51042 6.98214 3.56211 4.68907C6.79372 5.43297 10.2908 6.98551 12.7624 9.13617ZM9.50313 13.4352C10.7791 13.1739 11.476 13.3888 11.6324 13.7982C11.7353 14.0669 11.608 14.4258 11.2464 14.809C10.0525 16.0744 8.95779 17.4053 7.90677 18.7895H7.89711C5.32601 18.9744 2.65092 18.8716 0.141602 18.2634C2.69821 16.063 6.16397 14.1192 9.50313 13.4352ZM10.9604 18.7375C11.5182 17.5842 12.1139 17.151 12.524 17.2717C12.7927 17.3507 12.9905 17.6671 13.063 18.1748C13.2923 19.7794 13.6246 21.3545 14.0291 22.9296C14.0278 22.9316 14.0255 22.9345 14.0237 22.9365C12.6249 24.8653 11.1239 26.7226 9.24075 28.2334C9.01855 25.1165 9.6005 21.5495 10.9604 18.7375ZM15.7912 20.6297C15.2947 19.5749 15.3318 18.8592 15.6681 18.6119C15.8891 18.4498 16.2404 18.4806 16.6502 18.7155C17.9008 19.4325 19.1896 20.1023 20.5403 20.6344C20.5408 20.6367 20.5413 20.6396 20.5419 20.6422C21.0277 22.6142 21.3107 24.684 21.1858 26.7141C18.9371 25.283 16.8963 22.9793 15.7912 20.6297ZM20.0453 18.0304C19.0169 17.8092 18.5247 17.361 18.5563 16.9537C18.5771 16.6865 18.8166 16.4289 19.2374 16.2479C20.5307 15.6907 21.8077 15.0773 23.01 14.3427C23.012 14.344 23.0143 14.3453 23.0163 14.3463C24.6097 15.1363 26.1402 16.1389 27.3712 17.4087C25.1326 18.2561 22.3619 18.5283 20.0453 18.0304ZM20.8879 13.1265C20.0733 13.8186 19.4461 13.9357 19.1715 13.6545C18.9915 13.4701 18.9554 13.1143 19.0919 12.654C19.5239 11.1931 19.8597 9.7185 20.1389 8.22008C20.1409 8.2193 20.1435 8.21827 20.1458 8.21697C21.7874 7.47074 23.4361 6.78561 25.2585 6.60022C24.3974 8.99039 22.8369 11.4704 20.8879 13.1265Z" fill="#146E37"/>
<path fill-rule="evenodd" clip-rule="evenodd" d="M15.5647 0.392094C14.4854 2.21832 13.8544 4.31823 13.4601 6.378C13.4593 6.38059 13.4586 6.3837 13.4578 6.38629C13.187 6.04425 12.8273 5.63177 12.5164 5.25633C11.3375 3.83041 10.035 2.49589 8.71653 1.18597C10.8803 0.342121 13.257 0.065585 15.5647 0.392094ZM0 11.5667C2.01661 11.3269 4.04314 11.1081 6.05059 11.0421C6.56898 11.0247 7.15754 10.9994 7.62152 10.9983C7.61975 10.9963 7.61771 10.9934 7.61568 10.9911C5.98525 9.10633 4.51068 6.98286 3.56263 4.69005C1.76441 6.62088 0.535932 9.01752 0 11.5667ZM3.97347 24.9647C4.92229 23.285 5.92169 21.6214 7.01542 20.0531C7.30576 19.637 7.6322 19.1585 7.90678 18.7895C7.90347 18.7897 7.90017 18.7897 7.89712 18.7897C5.32627 18.9749 2.6517 18.8718 0.142881 18.2636C0.784831 20.7775 2.10051 23.118 3.97347 24.9647ZM16.0797 28.7559C15.4693 27.2614 14.8831 25.7557 14.4175 24.2381C14.2881 23.8166 14.1353 23.3267 14.0291 22.9298C14.0278 22.9318 14.0255 22.9349 14.0237 22.9367C12.6252 24.8655 11.1244 26.722 9.24178 28.2329C11.5149 28.8797 13.723 29.1834 16.0797 28.7559ZM25.5158 22.2231C24.2044 21.9005 22.8981 21.5339 21.6437 21.0533C21.2865 20.9166 20.8708 20.7711 20.5403 20.6344C20.5408 20.6372 20.5414 20.6398 20.5419 20.6424C21.0277 22.6141 21.3107 24.6837 21.1858 26.7135C22.9528 25.554 24.4337 24.0069 25.5158 22.2231ZM27.2746 11.3572C26.2218 12.1979 25.1392 13.013 23.9957 13.7254C23.6758 13.9245 23.3125 14.165 23.01 14.3432C23.012 14.3442 23.0143 14.3455 23.0164 14.3465C24.6094 15.1363 26.1397 16.1388 27.3707 17.4084C27.6623 15.31 27.6394 13.4447 27.2746 11.3572ZM20.7651 2.24887C20.6687 3.82057 20.5523 5.39563 20.3331 6.93367C20.2739 7.3508 20.2065 7.83681 20.1389 8.22028C20.1409 8.21951 20.1435 8.21821 20.1458 8.21743C21.7871 7.47094 23.4356 6.78608 25.258 6.60068C24.1134 4.84981 22.5786 3.34647 20.7651 2.24887Z" fill="#64C832"/>
</svg>
